<?xml version="1.0" encoding="UTF-8" standalone="no"?>
<!-- Created with Inkscape (http://www.inkscape.org/) -->

<svg
   version="1.1"
   id="svg85"
   width="24.62394"
   height="44.910633"
   viewBox="0 0 24.62394 44.910632"
   sodipodi:docname="2d-girl.svg"
   inkscape:version="1.1 (c4e8f9ed74, 2021-05-24)"
   inkscape:export-filename="/home/roman/workspace/projects/PCBs/ble-receiver/res/2d-girl.png"
   inkscape:export-xdpi="1200"
   inkscape:export-ydpi="1200"
   xmlns:inkscape="http://www.inkscape.org/namespaces/inkscape"
   xmlns:sodipodi="http://sodipodi.sourceforge.net/DTD/sodipodi-0.dtd"
   xmlns="http://www.w3.org/2000/svg"
   xmlns:svg="http://www.w3.org/2000/svg">
  <defs
     id="defs89">
    <inkscape:path-effect
       effect="spiro"
       id="path-effect164"
       is_visible="true"
       lpeversion="1" />
    <inkscape:path-effect
       effect="spiro"
       id="path-effect9139"
       is_visible="true"
       lpeversion="1" />
    <inkscape:path-effect
       effect="spiro"
       id="path-effect7603"
       is_visible="true"
       lpeversion="1" />
    <inkscape:path-effect
       effect="spiro"
       id="path-effect7599"
       is_visible="true"
       lpeversion="1" />
    <inkscape:path-effect
       effect="spiro"
       id="path-effect4623"
       is_visible="true"
       lpeversion="1" />
  </defs>
  <sodipodi:namedview
     id="namedview87"
     pagecolor="#ffffff"
     bordercolor="#666666"
     borderopacity="1.0"
     inkscape:pageshadow="2"
     inkscape:pageopacity="0.0"
     inkscape:pagecheckerboard="0"
     showgrid="false"
     inkscape:zoom="21.384473"
     inkscape:cx="12.485695"
     inkscape:cy="34.978651"
     inkscape:window-width="1920"
     inkscape:window-height="1080"
     inkscape:window-x="0"
     inkscape:window-y="0"
     inkscape:window-maximized="1"
     inkscape:current-layer="g91"
     showguides="true"
     inkscape:guide-bbox="true" />
  <g
     inkscape:groupmode="layer"
     inkscape:label="Image"
     id="g91"
     transform="translate(-98.240941,-237.05657)">
    <path
       id="path175"
       style="fill:#000000;stroke-width:0.115044"
       d="m 16.482422,0 c -0.23024,0.005 -0.355708,0.10834438 -0.523438,0.24023438 -0.17365,0.13652999 -0.387455,0.30424937 -0.515625,0.47460937 -0.43729,0.59612005 -1.18065,1.53063245 -1.3125,1.78906245 -0.13186,0.2584401 -0.271604,0.4982976 -0.396484,0.7734376 -0.12489,0.2751499 -0.349664,0.9277937 -0.458984,0.9648437 -0.3275,0.11098 -0.900077,0.078127 -1.310547,0.1484375 -0.30043,0.0514 -0.598278,0.1421088 -1.142578,0.5742188 -0.18245,0.1461999 -0.336042,0.2330137 -0.519532,0.2773437 -0.4320496,0.1044 -0.8649228,0.00293 -1.5957028,0.2675781 -0.3795199,0.14377 -0.9263268,0.4635475 -1.0605468,0.5546875 -0.13421,0.0911 -0.34375,0.2910157 -0.34375,0.2910157 -0.12434,-0.003 -0.1398606,-0.00974 -0.4628906,-0.125 -0.48433,-0.17317 -0.9401182,-0.3953825 -1.4863282,-0.4140626 -0.61234,-0.0209 -1.2360543,0.070147 -1.8027344,0.060547 C 3.0013213,5.8679531 2.4688425,5.7879 2.0390625,5.75 1.4948155,5.6945 0.32784275,5.4485825 0.27734375,5.8828125 0.24860375,6.2364425 0.271211,6.5062694 0.4375,6.9433594 c 0.177162,0.4658 0.3127275,0.7709625 0.6796875,1.2265625 0.45066,0.55951 0.9523056,1.1369162 1.3847656,1.5976562 0.55954,0.6876699 1.1814681,1.3520889 1.7675781,1.9804689 0.19089,0.21156 0.1346207,0.711231 -0.037109,1.769531 -0.0844,0.52046 -0.3978706,1.322595 -1.0566407,2.703125 -0.9126899,1.91267 -0.9391456,1.988776 -0.9785156,2.941406 -0.0408,0.98747 0.086563,1.477865 0.4082032,1.583985 0.1117899,0.0369 0.1252606,-0.03322 0.056641,-0.279297 -0.0502,-0.18019 -0.091797,-0.741847 -0.091797,-1.248047 0,-0.89521 0.020677,-0.961068 0.7480469,-2.486328 0.67252,-1.41029 0.7510931,-1.529508 0.7832031,-1.179688 0.0545,0.59335 -0.2843113,2.213442 -0.8007813,3.826172 -0.6149099,1.92015 -0.6601381,2.964758 -0.1738281,3.955078 0.3401,0.69262 0.8912275,1.192312 0.7109375,0.644532 -0.0492,-0.14955 -0.1081993,-0.764125 -0.1308594,-1.365235 -0.0427,-1.13221 -0.013856,-1.137119 0.3652344,-0.06836 0.2605,0.73434 0.8863588,1.418336 1.6054688,1.753906 0.56713,0.26466 1.0942469,0.345206 1.2480468,0.191406 0.0433,-0.0433 -0.090155,-0.262671 -0.296875,-0.488281 l -0.3769531,-0.410156 0.4609375,0.417969 c 0.85668,0.7798 1.6933244,1.041847 2.3964844,0.748046 0.23168,-0.0968 0.421875,-0.234447 0.421875,-0.304687 0,-0.0702 -0.059349,-0.09098 -0.1308594,-0.04687 -0.0796,0.0492 -0.1059125,0.01782 -0.070312,-0.08008 0.061,-0.16793 0.070014,-0.167619 0.5898438,-0.03711 0.31458,0.079 0.321364,0.07091 0.183594,-0.193359 l -0.1425784,-0.273437 0.2734374,0.24414 c 0.3648,0.32494 0.725335,0.503906 1.015625,0.503906 0.30242,0 0.305139,0.18378 0.0059,0.34375 -0.14893,0.0797 -0.302063,0.08602 -0.433593,0.01563 -0.13823,-0.074 -0.293932,-0.05877 -0.488282,0.04883 -0.15714,0.087 -0.3729983,0.159869 -0.4804683,0.162109 -0.10747,0.002 -0.3290275,0.128067 -0.4921875,0.279297 -0.3869,0.35857 -0.7013562,0.476879 -2.0039062,0.755859 -1.24758,0.26721 -1.9600425,0.640798 -2.4140625,1.267578 -0.17664,0.24383 -0.6877457,1.160097 -1.1347656,2.035157 -1.54181,3.01812 -2.1934944,4.841511 -2.5214844,7.044922 -0.136228,0.9152 -0.2691409,1.362417 -0.5605469,1.898437 -0.72331,1.33047 -0.88787287,2.336653 -0.57617188,3.507813 0.19582401,0.735779 1.07469048,2.515946 1.46093748,2.972656 H 2.0292969 L 1.53125,44.132812 C 0.646864,42.765693 0.40062612,42.053526 0.39257812,40.847656 c -0.0063,-0.94509 0.0250431,-1.104783 0.37695313,-1.839844 0.35000705,-0.73111 0.39529125,-0.780772 0.48828125,-0.539062 0.176176,0.45792 0.3002856,0.179582 0.3847656,-0.867188 0.185063,-2.29315 0.7330838,-4.098251 2.1210938,-6.982421 0.50513,-1.04964 0.9471618,-1.908194 0.9824219,-1.908203 0.1181799,0 0.6150449,1.084593 0.859375,1.876953 0.33647,1.0912 0.50202,1.32818 0.4375,0.625 -0.0276,-0.30056 -0.00974,-0.546875 0.039062,-0.546875 0.1554501,0 -0.1111993,-0.91203 -0.5371093,-1.84375 l -0.412109,-0.902344 0.2441406,-0.341797 c 0.32894,-0.46196 1.0280688,-0.781863 2.1992188,-1.001953 0.53668,-0.10086 1.1866793,-0.303935 1.4433593,-0.453125 l 0.4667969,-0.271485 0.3242188,0.404297 c 0.3789301,0.4749 1.9336951,1.284905 2.0097651,1.046875 0.0255,-0.0798 0.140713,-0.269021 0.257813,-0.419922 0.1171,-0.150899 0.212821,-0.383748 0.212891,-0.517578 1.1e-4,-0.23333 0.05403,-0.242187 1.294922,-0.242187 1.202129,0 1.335088,-0.02353 1.861328,-0.320313 0.58757,-0.33136 0.749796,-0.293298 0.753906,0.175782 0.002,0.20342 0.285338,0.280941 0.392578,0.107422 0.077,-0.1246 1.881804,0.245167 2.402344,0.492187 0.2254,0.10696 0.434463,0.260654 0.464844,0.339844 0.10389,0.27072 -0.144392,1.218086 -0.550782,2.097656 -0.22337,0.48345 -0.402707,1.039588 -0.398437,1.236328 0.006,0.29121 0.14525,0.08378 0.74414,-1.115234 l 0.734375,-1.472657 0.404297,0.800782 c 0.22194,0.44073 0.591356,1.259259 0.822266,1.818359 0.62328,1.50908 0.900279,2.009753 1.480469,2.689453 0.28855,0.33805 0.523437,0.700078 0.523437,0.804688 0,0.1046 -0.103919,0.491555 -0.230469,0.859375 -0.12655,0.36782 -0.230468,0.858144 -0.230468,1.089843 0,0.582651 0.298588,1.526396 0.761718,2.416016 0.3813,0.73243 0.724649,2.005821 0.580078,2.150391 -0.0723,0.0723 -0.369124,-0.242561 -1.609374,-1.712891 -0.47922,-0.56812 -0.652344,-0.866867 -0.652344,-1.123047 0,-0.42948 -0.388971,-0.852711 -0.707032,-0.769531 -0.14633,0.0383 -0.250588,-0.0088 -0.292968,-0.132812 -0.0361,-0.10582 -0.439628,-1.072778 -0.898438,-2.148438 -0.45883,-1.07566 -0.899255,-2.162926 -0.978515,-2.416016 -0.25431,-0.81216 -0.583479,-1.349699 -1.230469,-2.005859 -0.57795,-0.58612 -0.872508,-1.038844 -1.617188,-2.490234 -0.14358,-0.27986 -0.31294,-0.507813 -0.375,-0.507813 -0.062,0 -0.111328,-0.0821 -0.111328,-0.18164 0,-0.30028 -0.389272,-0.134981 -0.513672,0.21875 -0.10766,0.30614 -0.0033,0.842765 0.585938,3.041015 0.0692,0.25818 0.06117,0.260577 -0.746094,0.185547 -0.80959,-0.0752 -0.816164,-0.0726 -0.933594,0.236328 -0.0651,0.17121 -0.11914,0.444765 -0.11914,0.609375 0,0.43364 -0.15366,0.215407 -0.28711,-0.408203 -0.092,-0.43009 -0.185423,-0.572041 -0.464843,-0.707031 l -0.34961,-0.167969 0.458985,-0.910156 c 0.32957,-0.65416 0.4583,-1.057777 0.46289,-1.441406 0.006,-0.477861 -0.0198,-0.533161 -0.248047,-0.525391 -0.17969,0.006 -0.287497,-0.08588 -0.367187,-0.314453 -0.14893,-0.4272 -0.41692,-0.323051 -0.59375,0.230468 -0.26811,0.839241 -0.981885,2.039631 -1.615234,2.71875 -0.35591,0.38163 -0.758795,0.916171 -0.896485,1.1875 -0.1376999,0.27133 -0.6714068,0.969875 -1.1855468,1.552735 -0.51415,0.58287 -1.3621856,1.63787 -1.8847656,2.34375 -0.35924,0.48525 -0.6246619,0.813381 -0.9199218,1.175781 0,0 -0.040328,-2.414271 -0.048828,-2.488281 -0.004,-0.0308 -0.053084,-0.08724 -0.083984,-0.08984 -0.037,-0.003 -0.1018525,0.0546 -0.1015624,0.0918 0.002,0.30737 -0.044922,2.832031 -0.044922,2.832031 -0.60815,0.72582 -1.031,1.133247 -1.3125,1.253907 -0.19117,0.082 -0.5385644,0.338782 -0.7714844,0.570312 -0.23291,0.23153 -0.8027281,0.636417 -1.2675781,0.898438 -0.967867,0.545549 -1.2478619,0.948068 -1.2480469,1.798828 -1.74e-4,0.72412 0.1969891,0.81157 0.2832031,0.125 0.0379,-0.30178 0.1340777,-0.678658 0.2128906,-0.835938 0.164761,-0.32878 2.1729413,-1.487046 2.2382813,-1.291016 0.0227,0.0682 0.1887738,0.330352 0.3710937,0.582032 0.53948,0.74472 1.657265,1.398437 2.390625,1.398437 0.30847,0 0.3093175,0.09265 0.023438,1.154297 -0.22877,0.84957 -1.0860813,1.730101 -2.5507813,2.613281 -0.4392,0.26483 -0.8243519,0.392863 -1.3261719,0.445313 l -0.1171875,0.01367 h 1.4453125 c 0.4025,-0.22602 1.117245,-0.735945 1.578125,-1.083985 l -0.00977,1.091797 c 2.0174603,0.0013 2.3392484,-0.03047 3.1318532,-0.05789 3.6763403,-0.127165 10.2752403,0.05009 13.9521313,0.05009 0.48138,-0.32845 1.336913,-1.266387 1.601563,-1.785156 0.26095,-0.51151 0.263537,-0.541402 0.216797,-2.613282 l -0.03125,-1.380859 -0.607422,-1.277344 c -0.70945,-1.49183 -0.831493,-2.156735 -0.539063,-2.921875 0.10882,-0.28473 0.22099,-0.726359 0.25,-0.980469 0.0465,-0.40803 2.79e-4,-0.522925 -0.394531,-0.978515 -0.7232,-0.83429 -0.919424,-1.166148 -1.527344,-2.585938 -0.86452,-2.01906 -1.584197,-3.346752 -2.023437,-3.732422 -0.39191,-0.3441 -0.981373,-0.550105 -2.289063,-0.796875 -0.41797,-0.0789 -0.758311,-0.215626 -0.863281,-0.347656 -0.0953,-0.11982 -0.339386,-0.301054 -0.541016,-0.402344 -0.42739,-0.21471 -0.494881,-0.307091 -0.613281,-0.832031 -0.0959,-0.4254 -0.05937,-0.471237 0.496094,-0.623047 l 0.369141,-0.101562 -0.402344,0.355469 c -0.34944,0.307729 -0.366643,0.346365 -0.132813,0.291015 0.25959,-0.0614 0.26202,-0.05573 0.06836,0.158203 -0.19525,0.21577 -0.188866,0.222656 0.240234,0.222656 0.61712,0 1.257003,-0.343306 2.095703,-1.123046 0.39547,-0.36766 0.720703,-0.626076 0.720703,-0.572266 0,0.17476 -0.251327,0.593934 -0.560547,0.933594 l -0.302734,0.332031 0.458984,-0.07031 c 1.06848,-0.164049 1.999829,-1.257122 2.298829,-2.695312 0.32655,-1.57065 0.381281,-1.678528 0.394531,-0.798828 0.008,0.50968 -0.07055,1.021176 -0.22461,1.478516 -0.129699,0.38504 -0.21101,0.724516 -0.18164,0.753906 0.21589,0.21587 1.647565,-1.303862 2.103516,-2.232422 0.308899,-0.62909 0.326249,-0.747156 0.318359,-2.103516 -0.009,-1.48978 -0.02733,-1.587377 -0.753906,-3.898437 -0.18658,-0.59346 -0.319995,-1.097984 -0.296875,-1.121094 0.0957,-0.0957 1.496467,1.672301 1.773437,2.238281 0.5174,1.05733 0.500648,2.251108 -0.03906,2.892578 -0.30857,0.36672 -0.287342,0.425166 0.08008,0.228516 0.37738,-0.20197 0.705078,-0.999021 0.705078,-1.712891 0,-1.33126 -0.418226,-2.138533 -1.916016,-3.689453 L 21.761719,12.431641 21.441406,11.166016 C 21.265146,10.469996 21.02497,9.6425419 20.90625,9.3261719 20.80026,9.0437019 20.730731,8.8242081 20.712891,8.7363281 c -0.14761,-0.30695 -0.307688,-0.6466862 -0.460938,-0.8789062 -0.16665,-0.25251 -0.40443,-0.6300425 -0.5,-0.7578125 -0.0712,-0.0953 -0.09361,-0.12595 -0.117187,-0.34375 -0.0156,-0.1435 -0.01228,-0.2783906 -0.02148,-0.4316406 -0.041,-0.6747001 -0.06013,-1.4229782 -0.251953,-1.8925782 -0.23536,-0.57627 -0.479021,-1.3022056 -0.707031,-1.7285156 -0.22802,-0.42631 -0.425635,-0.8631687 -0.703125,-1.2617188 -0.26136,-0.3879 -0.417143,-0.82287683 -0.695313,-1.09179682 -0.0961,-0.0929 -0.1783,-0.20181313 -0.30664,-0.25195313 C 16.833569,0.05245625 16.636222,-9e-4 16.482422,0 Z m 0.09766,0.36132812 c 0.20571,0.0326 0.42024,0.36061375 0.96875,1.24609378 1.08271,1.74787 1.563217,2.9859156 1.685547,4.3535156 0.0325,0.36383 0.02337,0.6586269 -0.01953,0.6542969 -0.0429,-0.004 -0.28401,-0.1647588 -0.53711,-0.3554688 -0.2531,-0.1907 -0.522879,-0.3823512 -0.599609,-0.4257812 -0.10716,-0.0606 -0.09884,-0.19778 0.03906,-0.59375 C 18.440718,4.3115944 18.07533,2.8079881 17.21875,1.5488281 16.67375,0.74769812 16.482796,0.66641 16.066406,1.0625 c -0.39673,0.37739 -1.284605,2.1409019 -1.484375,2.9511719 -0.11911,0.48312 -0.167756,0.5488575 -0.378906,0.4921875 -0.13358,-0.0359 -0.282628,-0.067459 -0.330078,-0.068359 -0.48599,-0.009 1.490603,-3.312995 2.345703,-3.921875 0.10832,-0.0771 0.193618,-0.13287062 0.273438,-0.15039062 0.03,-0.007 0.05849,-0.008906 0.08789,-0.003906 z M 13.099609,4.6660156 c 1.41565,0 2.476889,0.2562569 3.886719,0.9355469 2.2471,1.08273 3.185154,2.3501106 3.996094,5.4003905 0.22592,0.84978 0.595635,2.166491 0.822266,2.925781 0.926199,3.10299 0.989453,3.397226 1.001953,4.666016 0.0115,1.16421 -0.0049,1.245328 -0.38086,1.986328 -0.21561,0.4249 -0.560788,0.964882 -0.767578,1.201172 l -0.375,0.429688 0.115235,-0.517579 c 0.209879,-0.93596 -0.09357,-2.77118 -0.59375,-3.59375 L 20.589844,17.744141 20.652344,19 c 0.0933,1.85765 -0.256917,3.139673 -1.128906,4.132812 -0.19811,0.22564 -0.459199,0.462664 -0.580079,0.527344 -0.1957,0.10474 -0.187451,0.05353 0.07422,-0.46289 0.33065,-0.6525 0.635333,-1.817849 0.632813,-2.423828 -0.001,-0.36719 -0.03702,-0.325002 -0.398438,0.486328 -0.36652,0.82265 -0.970565,1.859659 -1.041015,1.787109 -0.0166,-0.0171 0.19355,-0.496936 0.46875,-1.066406 0.655219,-1.35586 0.887894,-2.487474 0.896484,-4.371094 0.019,-4.15965 -0.562033,-7.389387 -1.658203,-9.2109375 -0.80727,-1.34147 -2.180151,-2.2754556 -3.550781,-2.4160156 -0.520781,-0.0534 -0.520118,-0.05293 0.226562,0.21875 1.9955,0.72597 2.598534,1.3793362 3.496094,3.7851562 0.6372,1.7079599 0.852362,2.9970729 1.044922,6.2519529 0.14892,2.51727 -0.508341,5.439589 -1.619141,7.199219 -0.22818,0.36146 -1.197266,1.047346 -1.197266,0.847656 0,-0.0324 0.188752,-0.306322 0.419922,-0.607422 0.72125,-0.9394 1.007731,-1.689324 1.056641,-2.771484 0.0265,-0.58681 -0.0045,-1.008724 -0.08008,-1.083984 -0.0875,-0.0875 -0.103471,-0.0049 -0.05664,0.283203 0.15129,0.93232 -0.833979,2.925544 -1.574219,3.183593 -0.52443,0.182811 -0.536042,0.170984 -0.195312,-0.185546 0.34525,-0.36126 0.767724,-1.23641 0.771484,-1.59375 0.002,-0.13256 0.107825,-0.334699 0.234375,-0.449219 0.40926,-0.37037 0.243085,-0.422531 -0.259765,-0.08203 -0.80994,0.54845 -0.824315,0.540038 -0.271485,-0.138672 0.78651,-0.96563 1.079875,-1.619463 1.390625,-3.095703 0.0445,-0.21135 0.02672,-0.299893 -0.05078,-0.251953 -0.0658,0.0407 -0.119141,0.150983 -0.119141,0.246093 0,0.46681 -1.094755,2.228516 -1.384765,2.228516 -0.0565,0 -0.0028,-0.16845 0.11914,-0.375 0.31794,-0.53886 0.563018,-1.718166 0.585938,-2.816406 0.0141,-0.67506 0.06121,-0.949219 0.164062,-0.949219 0.0795,0 0.266636,-0.102023 0.416016,-0.226563 l 0.273437,-0.226562 -0.371093,0.134765 c -0.20323,0.0742 -0.391029,0.112765 -0.417969,0.08399 -0.0269,-0.0288 -0.08589,-0.377968 -0.130859,-0.773438 -0.0942,-0.82827 0.02094,-0.912898 0.554687,-0.417968 0.1775,0.16458 0.352335,0.266805 0.390625,0.228515 0.0949,-0.0948 -0.416279,-0.629285 -0.787109,-0.822265 -0.21844,-0.11367 -0.341466,-0.309695 -0.441406,-0.708985 -0.183531,-0.73323 -1.567065,-3.9250322 -1.859376,-4.2890622 l -0.230468,-0.2871094 0.164062,0.34375 c 0.2474,0.52145 1.189623,3.2466866 1.382813,3.9980466 l 0.169922,0.66211 h -0.3125 c -0.24881,0 -0.354285,-0.08864 -0.515625,-0.431641 -0.32759,-0.69656 -0.775638,-1.431394 -0.835938,-1.371094 -0.0307,0.0307 0.129369,0.455943 0.355469,0.945313 0.2261,0.48937 0.410156,0.902588 0.410156,0.917969 0,0.0154 -0.290501,0.145372 -0.644531,0.289062 -0.539,0.21876 -0.658461,0.234979 -0.744141,0.09961 -0.0563,-0.0889 -0.104568,-0.22755 -0.105469,-0.30664 -0.001,-0.0791 -0.04997,-0.142578 -0.109374,-0.142578 -0.0594,0 -0.09794,0.204828 -0.08594,0.455078 0.012,0.25024 -0.03045,0.46121 -0.09375,0.46875 -0.12334,0.0147 -0.21424,-0.34827 -0.6875,-2.75586 -0.27044,-1.37583 -0.924541,-3.4387396 -1.050781,-3.3124996 -0.0263,0.0263 0.132415,0.7069619 0.353515,1.5136718 0.47519,1.7338498 0.70768,2.9093798 0.81836,4.1308598 l 0.08203,0.892578 -0.574219,-0.21875 c -0.73681,-0.27996 -1.558601,-0.846745 -1.925781,-1.328125 -0.3641,-0.47738 -1.1781062,-2.205972 -1.3164062,-2.794922 L 9.09375,10.130859 9.082031,10.574219 c -0.0129,0.49417 0.227815,1.530374 0.578125,2.490234 0.22125,0.6062 0.392992,0.942734 0.857422,1.677735 l 0.212891,0.335937 -0.265625,-0.228516 c -0.39963,-0.34507 -1.2361717,-2.185148 -1.4570317,-3.205078 -0.14428,-0.66622 -0.1826644,-1.258657 -0.1464844,-2.2734372 0.0334,-0.93723 0.012747,-1.3098651 -0.064453,-1.171875 -0.20328,0.3632499 -0.1428925,3.1127302 0.085937,3.9375002 0.36449,1.31366 1.1935681,2.704191 1.8554681,3.113281 0.25485,0.1575 0.444565,0.441083 0.671875,1.001953 0.17435,0.43021 0.348649,0.85201 0.386719,0.9375 0.0525,0.11792 -0.01846,0.11076 -0.292969,-0.03125 -0.2613,-0.13512 -0.361328,-0.148895 -0.361328,-0.04687 0,0.18636 -0.812189,-0.609154 -1.074219,-1.052734 -0.1971792,-0.33379 -0.1973861,-0.348203 0.002,-0.351563 0.19809,-0.003 0.198044,-0.0093 -0.0039,-0.126953 -0.1164494,-0.0677 -0.28243,-0.285075 -0.36914,-0.484375 -0.14225,-0.32694 -0.1580494,-0.336384 -0.1621094,-0.08984 -0.004,0.2441 -0.044044,0.265412 -0.3652343,0.201172 -0.19772,-0.0395 -0.3998088,-0.07226 -0.4492188,-0.07226 -0.0494,0 -0.1769862,-0.244372 -0.2851562,-0.544922 -0.36358,-1.01022 -0.355505,-4.292083 0.015625,-6.1269534 0.0433,-0.21408 0.029766,-0.2436743 -0.052734,-0.1152344 -0.061,0.0949 -0.17374,0.5875501 -0.25,1.09375 -0.0763,0.5061901 -0.2078188,1.1277698 -0.2929687,1.3808598 -0.0851,0.2531 -0.3597782,1.055553 -0.6113282,1.783203 -0.28445,0.82281 -0.5057544,1.725039 -0.5839844,2.386719 -0.11359,0.960759 -0.4023293,1.859807 -0.5996093,1.867187 -0.0416,0.002 -0.1415763,-0.255896 -0.2226563,-0.572266 -0.0811,-0.31637 -0.1847587,-0.576171 -0.2304687,-0.576171 -0.14166,0 0.2235737,1.353675 0.5273437,1.953124 0.35093,0.692521 0.3548388,0.73782 0.042969,0.65625 -0.13673,-0.0357 -0.2015413,-0.02285 -0.1445313,0.03125 0.0566,0.0536 0.1966569,0.116712 0.3105469,0.138672 0.13795,0.0266 0.29461,0.28897 0.46875,0.78711 0.14377,0.41129 0.3907581,0.953931 0.5488281,1.207031 0.5085,0.81414 0.4969763,0.785482 0.2226563,0.638672 -0.55565,-0.29737 -1.2837613,-1.700281 -1.1132813,-2.144531 0.0339,-0.0883 0.014331,-0.16211 -0.042969,-0.16211 -0.19934,0 -0.2643894,1.081399 -0.1308594,2.167969 0.19357,1.57507 0.6394256,2.481646 1.5410156,3.134766 0.33561,0.24311 0.4008575,0.334344 0.2421875,0.333984 -0.29197,-4.5e-4 -0.8250675,-0.342969 -1.2734375,-0.818359 -0.49717,-0.52714 -0.8789462,-1.343215 -1.1914062,-2.546875 -0.14392,-0.5544 -0.2793413,-0.9902 -0.3007813,-0.96875 -0.0706,0.0706 0.1972831,1.962899 0.3769531,2.662109 0.0968,0.37684 0.2500338,0.82633 0.3398438,1 0.22419,0.43354 0.2059019,0.477391 -0.1113281,0.269531 -0.1506,-0.0987 -0.4417044,-0.494706 -0.6464844,-0.878906 -0.42226,-0.79224 -0.4195731,-0.76385 -0.3144531,-4.125 0.0435,-1.39061 0.036716,-1.730186 -0.021484,-0.978516 -0.0489,0.63274 -0.1802156,1.487148 -0.2910156,1.898438 -0.25415,0.94344 -0.2017881,2.400917 0.1074218,2.992187 0.16596,0.31733 0.1732632,0.37205 0.033203,0.25586 -0.0978,-0.0811 -0.2932638,-0.415988 -0.4335938,-0.742188 -0.21425,-0.49806 -0.2530737,-0.794262 -0.2460937,-1.851562 0.004,-0.69247 -0.011256,-1.238934 -0.035156,-1.214844 -0.0599,0.0603 -0.5205693,1.847273 -0.6933594,2.689453 L 3.2363281,22.785156 3.1464844,22.34375 c -0.1335,-0.66244 -0.00332,-1.424653 0.5097656,-3.001953 0.55747,-1.71354 0.7594613,-2.867066 0.9257812,-5.285156 0.19819,-2.88136 0.5062513,-4.006404 1.5195313,-5.5585941 0.32147,-0.49244 0.9292825,-1.2417925 1.3515625,-1.6640625 0.6766,-0.6766 0.8670494,-0.7970313 1.5996094,-1.0195313 0.45915,-0.13946 0.9933956,-0.1846687 1.1972656,-0.1992187 0.26367,-0.0188 0.433728,-0.013856 0.710938,-0.2910156 0.51985,-0.51985 0.968501,-0.6582032 2.138671,-0.6582032 z M 1.0878906,5.9433594 c 0.294572,0.005 0.7631244,0.054734 1.4589844,0.1464844 0.70459,0.0929 1.3723631,0.1132506 1.7832031,0.056641 0.36124,-0.0498 0.8640975,-0.058584 1.1171875,-0.021484 0.49779,0.073 1.5538882,0.4802763 1.5488282,0.5976562 -0.002,0.0397 -0.1836969,0.2666363 -0.4042969,0.5039063 -0.2206,0.23728 -0.4198594,0.4316406 -0.4433594,0.4316406 -0.0236,0 -0.1307513,-0.1347181 -0.2382813,-0.2988281 C 5.6042463,6.892495 4.8205319,6.6146613 3.4511719,6.4882812 c -0.67385,-0.0622 -1.531447,-0.1843043 -1.90625,-0.2714843 -0.374805,-0.0872 -0.72504877,-0.1319694 -0.77734378,-0.099609 -0.0523,0.0323 -0.0957031,0.0047 -0.0957031,-0.0625 0,-0.0788 0.12143663,-0.1168281 0.41601558,-0.1113285 z m 6.8144532,5.9140626 0.00781,0.867187 c 0.005,0.47709 0.086691,1.164907 0.1816407,1.529297 0.21463,0.82401 0.2144437,0.882813 -0.00391,0.882813 -0.0974,0 -0.3788931,0.101965 -0.6269531,0.228515 -0.24805,0.12655 -0.4756794,0.230469 -0.5058594,0.230469 -0.1512,0 0.4522206,-2.606506 0.7753907,-3.347656 z m 1.921875,1.039062 c 0.002,-0.0351 0.049038,0.03037 0.1425781,0.166016 0.6571001,0.95274 1.4386561,1.527551 2.4101561,1.775391 l 0.539063,0.138671 0.140625,0.740235 c 0.0778,0.40781 0.144537,0.784747 0.148437,0.835937 0.0149,0.19535 -0.234569,-0.06825 -0.449219,-0.474609 l -0.222656,-0.423828 -0.0059,0.365234 c -0.003,0.20152 0.04571,0.4998 0.107422,0.66211 0.15248,0.40104 -0.06337,0.388613 -0.648438,-0.03516 -0.368,-0.26658 -0.494186,-0.461787 -0.666016,-1.029296 -0.11669,-0.385401 -0.265931,-0.690525 -0.332031,-0.677735 -0.17869,0.0346 -0.830059,-0.975975 -1.0371091,-1.609375 -0.0861,-0.26335 -0.1290232,-0.398494 -0.1269531,-0.433594 z m 6.2421872,0.996094 c 0.1255,0.0241 0.22905,0.251456 0.31836,0.697266 0.0728,0.36344 0.09518,0.660156 0.05078,0.660156 -0.14138,0 -0.70926,-1.144624 -0.630859,-1.271484 0.0414,-0.067 0.159408,-0.105598 0.261718,-0.08594 z m 5.263672,0.126953 c -0.0466,0.0161 0.07206,0.707787 0.345703,1.935547 0.4727,2.12125 0.543215,3.383896 0.234375,4.228516 -0.10124,0.27687 -0.181967,0.561672 -0.179687,0.632812 0.0106,0.33145 0.579976,-0.627302 0.691406,-1.164062 0.19422,-0.93555 0.0048,-2.066774 -0.826172,-4.902344 -0.14871,-0.50777 -0.237665,-0.740139 -0.265625,-0.730469 z m -6.001953,0.0039 c 0.13045,0.008 0.188353,0.122329 0.314453,0.474609 l 0.1875,0.523437 h -0.265625 c -0.2804,0 -0.913045,-0.681098 -0.765625,-0.824218 0.0451,-0.0437 0.210961,-0.111541 0.369141,-0.150391 0.0646,-0.0159 0.116676,-0.02614 0.160156,-0.02344 z m -0.777344,0.259765 c 0.0695,0.0183 0.123148,0.09976 0.210938,0.269531 0.0971,0.18775 0.175781,0.369517 0.175781,0.404297 0,0.1401 -0.234513,0.04798 -0.533203,-0.208984 l -0.314453,-0.271485 0.248047,-0.132812 c 0.0549,-0.0294 0.09878,-0.04909 0.136718,-0.05859 0.0284,-0.007 0.05307,-0.008 0.07617,-0.002 z m -0.621093,0.361328 c 0.0175,-0.009 0.04382,-0.0062 0.07812,0.0098 0.0457,0.0212 0.106378,0.06399 0.179688,0.132812 0.15624,0.14678 0.256086,0.311155 0.222656,0.365235 -0.10077,0.16305 -0.262572,0.112573 -0.388672,-0.123047 -0.11892,-0.22221 -0.144227,-0.357656 -0.0918,-0.384766 z m -0.271485,0.03125 c 0.0559,0 0.129019,0.103919 0.162109,0.230469 0.071,0.27169 -0.09199,0.310995 -0.193359,0.04687 -0.0927,-0.24151 -0.08895,-0.277344 0.03125,-0.277344 z m -0.363281,0.263672 c 0.063,-0.024 0.16858,0.08044 0.34375,0.302735 l 0.255859,0.322265 -0.263672,0.246094 c -0.3296,0.30964 -0.417968,0.22394 -0.417968,-0.40625 0,-0.28912 0.01903,-0.440824 0.08203,-0.464844 z m -4.9062501,0.541016 c 0.049,0 0.2466331,0.292437 0.4394531,0.648437 l 0.3515625,0.646485 -0.3730469,-0.06055 c -0.20519,-0.0333 -0.57054,0.0063 -0.8125,0.08984 -0.24197,0.0832 -0.559185,0.263207 -0.703125,0.398437 L 7.0292969,17.449205 6.9589849,17.18358 c -0.16061,-0.59963 -0.082842,-0.990437 0.2421875,-1.216797 0.29338,-0.2043 0.98117,-0.486328 1.1875,-0.486328 z m 0.6738281,0 c 0.40458,0 0.5918912,0.14046 0.8320312,0.61914 0.1309998,0.26111 0.3441698,0.590052 0.4746098,0.732422 0.15454,0.16868 0.18583,0.259766 0.08789,0.259766 -0.0827,0 -0.334804,-0.194361 -0.5585935,-0.431641 -0.24055,-0.25504 -0.3494581,-0.324895 -0.2675781,-0.171875 0.2507,0.46849 -0.034506,0.268685 -0.4160156,-0.291015 C 8.7801838,15.559496 8.76423,15.480469 9.0625,15.480469 Z m 6.513672,0.40039 c 0.0421,-0.003 0.08132,0.01505 0.109375,0.06055 0.0429,0.0694 0.04887,0.201079 0.01367,0.292969 -0.0819,0.21341 -0.258484,0.215746 -0.339844,0.0039 -0.0606,-0.15797 0.09042,-0.349092 0.216797,-0.357422 z m -1.34961,0.01953 c 0.100041,-0.0327 0.103516,0.0908 0.103516,0.550781 0,0.39504 0.07145,0.740698 0.191406,0.923828 0.18578,0.28353 0.183158,0.291748 -0.07031,0.298828 -0.25644,0.007 -0.254686,0.01046 0.02734,0.125 0.15818,0.0645 0.533997,0.09411 0.835937,0.06641 0.61165,-0.0562 0.638977,0.01149 0.06055,0.148438 l -0.378906,0.08984 0.380859,0.01172 c 0.43793,0.0135 0.927002,-0.200052 0.732422,-0.320312 -0.08,-0.0494 -0.03885,-0.134259 0.115234,-0.230469 0.23739,-0.14826 0.242555,-0.13966 0.171875,0.40625 -0.0398,0.30701 -0.27882,0.967097 -0.53125,1.466797 -0.25243,0.49971 -0.434193,0.952386 -0.402343,1.003906 0.0319,0.0516 0.185846,0.04368 0.341797,-0.01563 0.15595,-0.0593 0.283203,-0.07551 0.283203,-0.03711 0,0.23265 -0.545745,0.879408 -0.990235,1.173828 l -0.519531,0.345703 0.380859,0.03711 0.38086,0.03516 -0.722656,0.496093 c -0.398021,0.27301 -0.994589,0.621921 -1.324219,0.775391 -0.76361,0.35553 -0.956378,0.349777 -2.179688,-0.06445 C 9.9882612,22.8065 9.1538194,22.411738 8.7246094,22.054688 L 8.4375,21.816406 8.7539062,21.8125 C 9.1898063,21.8075 9.1502587,21.652916 8.6679688,21.478516 8.4466487,21.398516 8.1415744,21.168387 7.9902344,20.966797 7.7372644,20.629827 7,19.246575 7,19.109375 c 0,-0.0325 0.1674069,0.04456 0.3730469,0.169922 0.47751,0.29114 0.580695,0.287855 0.484375,-0.01563 -0.0581,-0.1832 -0.039934,-0.221674 0.072266,-0.152344 0.19974,0.12345 1.8277225,0.251782 1.7578125,0.138672 -0.0301,-0.0487 -0.00175,-0.08789 0.064453,-0.08789 0.3549996,0 0.5796276,-1.381597 0.2988276,-1.835937 -0.1276595,-0.20655 0.0085,-0.266677 0.277344,-0.123047 0.13281,0.0711 0.611673,0.155273 1.064453,0.189453 l 0.824219,0.0625 -0.193359,-0.292969 c -0.27152,-0.4144 -0.24292,-0.442453 0.18164,-0.183593 0.20564,0.12538 0.492729,0.228335 0.636719,0.228515 0.25501,3.7e-4 0.257418,-0.009 0.08008,-0.351562 l -0.181641,-0.353516 0.292969,0.193359 c 0.16178,0.10601 0.295075,0.250446 0.296875,0.322266 0.002,0.0718 0.119449,-0.09684 0.261719,-0.375 0.14227,-0.27814 0.366397,-0.576652 0.498047,-0.664062 0.0582,-0.0387 0.103379,-0.06723 0.136718,-0.07813 z m -0.564453,0.189453 c 0.0158,0.0251 -0.0049,0.10342 -0.05859,0.24414 -0.0384,0.10009 -0.117319,0.181641 -0.173828,0.181641 -0.159131,0 -0.120918,-0.18503 0.07031,-0.34375 0.0937,-0.0777 0.146339,-0.107071 0.162109,-0.08203 z m 2.460938,0.263672 c 0.10116,0.0323 0.195312,0.180658 0.195312,0.392578 0,0.17604 -0.09048,0.423901 -0.201171,0.550781 -0.216201,0.24773 -0.668989,0.383546 -0.949219,0.285156 -0.55888,-0.19623 -0.768727,-0.839093 -0.347657,-1.064453 0.192981,-0.10327 0.237055,-0.07818 0.296876,0.160156 0.0636,0.2533 0.104183,0.268003 0.402343,0.164063 0.18168,-0.0633 0.360978,-0.212038 0.398438,-0.330078 0.0252,-0.0795 0.06311,-0.127931 0.105469,-0.150391 0.0318,-0.0168 0.06591,-0.01861 0.09961,-0.0078 z m -9.6015626,0.128906 0.072266,0.5625 c 0.0404,0.30989 0.097553,0.681859 0.1269531,0.824219 0.091,0.44075 -0.1218056,0.258677 -0.4472656,-0.382813 -0.16596,-0.32707 -0.1618438,-0.379417 0.035156,-0.679687 z m 1.6113281,0.724609 c 0.0418,3.6e-4 0.078884,0.286776 0.083984,0.634766 0.007,0.49688 0.067967,0.692969 0.2792969,0.917969 0.14803,0.15758 0.2473131,0.303978 0.2207031,0.324218 -0.23922,0.18192 -1.2558594,-0.604093 -1.2558594,-0.970703 0,-0.19745 0.526445,-0.90751 0.6718754,-0.90625 z m 1.2539063,0.257813 c 0.0175,-0.006 0.037194,-0.007 0.058594,0 0.0791,0.0264 0.1425781,0.116802 0.1425781,0.201172 0,0.0844 -0.063538,0.174811 -0.1425781,0.201172 -0.0855,0.0285 -0.1445313,-0.05289 -0.1445313,-0.201172 0,-0.110343 0.034057,-0.182579 0.085937,-0.201172 z m 0.6015624,0.375 0.00195,0.373047 c 10e-4,0.22232 -0.091706,0.466705 -0.2285156,0.603515 -0.2659101,0.26591 -0.4122419,0.282708 -0.7949219,0.08594 -0.45041,-0.23165 -0.5538075,-0.492298 -0.3046875,-0.767578 0.2757,-0.30464 0.3840775,-0.299586 0.4296875,0.02148 0.053,0.37318 0.55642,0.353353 0.75,-0.0293 z m 1.5683598,0.751953 c -0.0454,0.0141 -0.110031,0.08497 -0.181641,0.21875 -0.17851,0.33354 -0.144089,0.671044 0.08203,0.802734 0.38958,0.22691 0.529648,0.09024 0.173828,-0.169922 -0.17188,-0.12568 -0.182559,-0.199323 -0.06836,-0.501953 0.0733,-0.19408 0.0745,-0.316643 0.0332,-0.345703 -0.0103,-0.007 -0.02396,-0.0089 -0.03906,-0.0039 z m -2.5429691,0.816406 c -0.42254,0 -0.5147232,0.02701 -0.3457031,0.09961 0.12654,0.0544 0.2824331,0.09766 0.3457031,0.09766 0.0633,0 0.2191631,-0.04336 0.3457031,-0.09766 0.16902,-0.0726 0.076837,-0.09961 -0.3457031,-0.09961 z m 3.9882811,1.382813 c -0.0614,0.0105 -0.141498,0.03914 -0.236328,0.08984 -0.1259,0.0674 -0.487384,0.123047 -0.802734,0.123047 -0.70769,0 -1.026045,0.09859 -0.802735,0.25 0.2508,0.17008 1.417494,0.04441 1.777344,-0.191406 0.26465,-0.1734 0.248603,-0.302884 0.06445,-0.271484 z m -0.576172,0.873046 c -0.0529,-0.0126 -0.137304,-0.01149 -0.246093,0.0039 -0.191531,0.0281 -0.347657,0.09987 -0.347657,0.160156 0,0.1491 0.60518,0.06801 0.65625,-0.08789 0.0127,-0.0388 -0.0097,-0.06357 -0.0625,-0.07617 z m 2.59961,0.980469 -0.05859,0.955078 c -0.0521,0.83408 -0.02914,1.007304 0.185547,1.371094 0.13522,0.22917 0.246094,0.432762 0.246094,0.451172 0,0.0184 -0.194371,0.114914 -0.431641,0.214844 -0.84694,0.35669 -2.545856,0.307983 -3.222656,-0.0918 L 11.375,25.328125 11.613281,25.076172 c 0.14369,-0.15295 0.251601,-0.449436 0.275391,-0.753906 0.0311,-0.39864 0.07836,-0.492271 0.234375,-0.462891 0.39933,0.0752 1.326965,-0.243876 2.103515,-0.722656 z m -6.6953129,0.619141 c 0.005,-0.003 0.013691,-0.0011 0.025391,0.0039 0.0467,0.0208 0.1518349,0.106535 0.328125,0.265625 0.24523,0.22128 0.4945775,0.440651 0.5546874,0.488281 0.20423,0.16184 0.0067,0.08761 -0.3613281,-0.136718 -0.2016,-0.12293 -0.4286562,-0.342532 -0.5039062,-0.488282 -0.0406,-0.0786 -0.057069,-0.123982 -0.042969,-0.132812 z m 2.8417969,0.886719 c 0.006,-0.0149 0.04799,-0.0049 0.126953,0.02539 0.10385,0.0399 0.1875,0.119282 0.1875,0.175781 0,0.147941 -0.06676,0.127335 -0.232422,-0.07227 -0.0608,-0.0732 -0.08833,-0.113966 -0.08203,-0.128906 z m -0.685547,1.234375 c 0.22947,-0.002 0.194768,0.100181 -0.132812,0.269531 -0.3987404,0.2062 -0.4113654,0.207775 -0.5156254,0.103515 -0.16109,-0.161099 -0.061719,-0.260104 0.3320314,-0.333984 0.13416,-0.0252 0.239926,-0.03836 0.316406,-0.03906 z m 0.650391,0.248046 c 0.12524,-0.0481 0.110761,0.138379 -0.07422,0.455079 -0.24323,0.41645 -0.481789,0.520154 -0.699219,0.302734 -0.20692,-0.20692 -0.176621,-0.292444 0.136719,-0.371094 0.15376,-0.0386 0.364447,-0.153509 0.466797,-0.255859 0.0717,-0.0717 0.128162,-0.114839 0.169922,-0.13086 z m 0.529297,0.257813 c 0.0402,0.002 0.09716,0.02169 0.166015,0.05859 0.21833,0.11684 0.220222,0.144981 0.05078,0.550781 -0.0981,0.23508 -0.213652,0.464303 -0.257812,0.507812 -0.0657,0.0648 -0.398724,-0.05353 -0.583984,-0.207031 -0.0237,-0.0196 0.09373,-0.197181 0.259765,-0.394531 0.16605,-0.19735 0.300781,-0.4081 0.300781,-0.46875 0,-0.033 0.02415,-0.04907 0.06445,-0.04687 z m 3.724609,1.041016 h 0.002 c 0.0635,-0.0393 0.105273,0.208886 0.101563,0.597656 -0.004,0.46856 0.08056,0.866635 0.289062,1.353515 0.16258,0.37964 0.377766,0.984401 0.478516,1.34375 0.19365,0.69064 0.579692,1.291721 0.757812,1.181641 0.0585,-0.0362 -0.01966,-0.229881 -0.171875,-0.431641 -0.2561,-0.33942 -0.577158,-1.219716 -0.480468,-1.316406 0.0231,-0.0231 0.201584,0.235522 0.396484,0.576172 0.34192,0.59762 0.496284,1.148562 0.646484,2.294922 0.0695,0.53003 0.423759,1.143961 0.574219,0.994141 0.0418,-0.0416 9.33e-4,-0.222464 -0.0918,-0.402344 -0.0928,-0.17989 -0.249649,-0.761869 -0.349609,-1.292969 -0.13588,-0.72194 -0.30211,-1.16389 -0.65625,-1.75 -0.28797,-0.47662 -0.496027,-0.977184 -0.529297,-1.277344 l -0.05469,-0.49414 0.382813,0.685547 c 0.20977,0.3769 0.651945,0.97842 0.984375,1.33789 0.53793,0.58168 0.662204,0.817816 1.115234,2.134766 0.27996,0.81385 0.791802,2.159517 1.138672,2.992187 l 0.63086,1.513672 -0.248047,0.228516 c -0.1367,0.12486 -0.417837,0.310342 -0.623047,0.414062 -0.41738,0.21095 -0.944661,0.422423 -0.957032,0.382813 -0.004,-0.0143 -0.100803,-0.466076 -0.214843,-1.003906 -0.11406,-0.53783 -0.295884,-1.1594 -0.402344,-1.38086 -0.46403,-0.96519 -0.40665,-0.919202 -1.15625,-0.919922 -0.49675,-4.6e-4 -0.789259,-0.06631 -1.037109,-0.230468 -0.54526,-0.36111 -1.055767,-0.301342 -1.503907,0.173828 -0.47736,0.50614 -0.654744,0.524624 -0.490234,0.05273 0.15022,-0.43094 0.737623,-0.893261 1.376953,-1.082031 0.37605,-0.11103 0.490495,-0.203472 0.515625,-0.419922 0.0177,-0.15276 0.06581,-0.536486 0.107422,-0.853516 0.096,-0.73172 -0.142271,-1.073972 -0.837891,-1.201172 -0.46846,-0.0857 -0.48146,-0.07988 -0.55664,0.269532 -0.0423,0.19659 -0.154367,0.508196 -0.248047,0.691406 -0.22364,0.43738 -0.38308,0.19762 -0.25,-0.375 0.0537,-0.23085 0.100122,-0.581407 0.101562,-0.779297 0.004,-0.55919 0.207433,-0.656601 1.033203,-0.494141 0.473951,0.0932 0.757834,0.215254 0.871094,0.376954 0.21444,0.30615 0.217056,0.101576 0.0039,-0.408204 -0.2412,-0.57729 -0.755859,-2.665319 -0.755859,-3.068359 0,-0.19044 0.0477,-0.377152 0.107422,-0.414062 z m -2.447266,0.138671 c 0.0272,-0.0276 0.0302,0.07248 0.0332,0.275391 0.007,0.48094 -0.456945,2.162397 -0.853515,3.091797 -0.14849,0.34801 -0.357041,0.915662 -0.462891,1.263672 -0.35566,1.16948 -1.28633,2.328226 -2.1874998,2.722656 -0.4051299,0.17732 -0.4273862,0.205841 -0.1914062,0.244141 0.36931,0.0599 1.067153,-0.426566 1.626953,-1.134766 0.2547,-0.32221 0.462891,-0.510019 0.462891,-0.417969 0,0.30053 0.455207,0.752682 0.835937,0.832032 0.39646,0.0826 1.290993,0.558407 1.408203,0.748046 0.16105,0.26059 -0.08599,0.322505 -0.435546,0.109376 -0.50576,-0.308371 -1.127069,-0.283169 -1.886719,0.07617 -0.53886,0.25492 -0.74867,0.293224 -1.3437502,0.246094 -0.38811,-0.0307 -0.7935207,-0.02473 -0.9003907,0.01367 -0.22498,0.081 -1.3453506,2.173556 -1.7753906,3.316406 -0.16139,0.42891 -0.3071587,0.79534 -0.3242187,0.8125 -0.0613,0.0616 -1.3931451,-0.884194 -1.703125,-1.208984 l -0.3164063,-0.332031 0.53125,-0.625 c 0.29308,-0.34335 0.9671269,-1.225228 1.4980469,-1.960938 0.53092,-0.7357 1.4604931,-1.900844 2.0644531,-2.589844 0.60397,-0.68901 1.2064805,-1.4598 1.3378905,-1.71289 0.13141,-0.2531 0.443833,-0.693786 0.695313,-0.978516 0.25148,-0.28474 0.612654,-0.791883 0.802734,-1.126953 0.19009,-0.33507 0.369798,-0.585281 0.398437,-0.556641 0.0866,0.0866 -0.313701,0.781785 -0.857421,1.490235 -0.28219,0.36769 -0.489998,0.691643 -0.460938,0.720703 0.029,0.029 0.265048,-0.176711 0.523438,-0.457031 0.52682,-0.57154 0.997294,-1.427434 1.302734,-2.371094 0.0993,-0.30673 0.150564,-0.462634 0.177734,-0.490235 z m 0.603516,0.197266 c 0.0651,0.0734 -0.03428,0.619041 -0.222656,0.988281 -0.12784,0.25058 -0.250761,0.455079 -0.275391,0.455079 -0.0715,0 0.23615,-1.096858 0.375,-1.335938 0.0607,-0.10451 0.101357,-0.131902 0.123047,-0.107422 z m 2.265625,0.228516 c 0.008,-0.003 0.01729,-0.0011 0.02539,0.0059 0.0321,0.0284 0.06759,0.138196 0.130859,0.347656 0.0768,0.25424 0.121469,0.617961 0.09961,0.806641 -0.0378,0.32625 -0.04886,0.315086 -0.234375,-0.208984 -0.1275,-0.36005 -0.161839,-0.638578 -0.09961,-0.804688 0.0324,-0.0864 0.05493,-0.138214 0.07813,-0.146484 z M 4.9980469,28.28125 c 0.0781,0.0232 0.2351718,0.305254 0.3886719,0.708984 0.0618,0.16244 0.089347,0.296875 0.060547,0.296875 -0.0885,0 -0.5383956,-0.94012 -0.4785156,-1 0.008,-0.008 0.018097,-0.0099 0.029297,-0.0059 z m 7.8105471,1.810547 c 0.24864,0.004 0.520669,0.269823 0.630859,0.720703 0.0655,0.26784 0.175091,0.658761 0.244141,0.869141 0.069,0.21037 0.102852,0.40499 0.07617,0.43164 -0.0905,0.0905 -0.541669,-0.477534 -0.667969,-0.839843 -0.0827,-0.23708 -0.241321,-0.399333 -0.462891,-0.476563 -0.31084,-0.10836 -0.326475,-0.141379 -0.203125,-0.412109 0.0927,-0.20353 0.233633,-0.295239 0.382813,-0.292969 z m -0.503906,0.919922 c 0.255889,0 0.677734,0.38891 0.677734,0.625 0,0.0907 0.229016,0.353934 0.509766,0.583984 0.43437,0.35594 0.54653,0.397953 0.75,0.289063 0.141279,-0.0756 0.295933,-0.337695 0.376953,-0.640625 0.11016,-0.41187 0.187308,-0.511719 0.392578,-0.511719 0.56754,0 0.676368,0.86571 0.486328,1.5 -0.19004,0.63429 -0.214891,0.468944 -0.613281,0.621094 -0.26557,0.10142 -0.63171,0.338643 -0.8125,0.527343 -0.37427,0.39065 -0.43351,0.406502 -0.625,0.175782 -0.0759,-0.0915 -0.405102,-0.251279 -0.732422,-0.355469 -0.9912,-0.31549 -1.333292,-0.905611 -0.951172,-1.644531 0.0895,-0.17305 0.20003,-0.507088 0.24414,-0.742188 0.0589,-0.31404 0.137235,-0.427734 0.296876,-0.427734 z m 4.658203,1.757812 c -0.0277,0.01 -0.07338,0.0651 -0.146485,0.169922 -0.0993,0.14236 -0.252663,0.257813 -0.339844,0.257813 -0.0872,0 -0.158203,0.05194 -0.158203,0.115234 0,0.16331 0.140237,0.142427 0.435547,-0.06445 0.14062,-0.0985 0.251367,-0.265907 0.248047,-0.373047 -0.002,-0.0789 -0.01136,-0.114989 -0.03906,-0.105469 z m -1.806641,1.69336 c 0.12591,0 0.4774,0.133595 0.78125,0.296875 0.44107,0.23698 0.652938,0.282778 1.048828,0.230468 l 0.496094,-0.06445 0.238281,0.53711 c 0.13083,0.29576 0.314433,0.992718 0.408203,1.548828 l 0.169922,1.011719 -0.300781,0.357421 c -0.35987,0.42767 -0.379853,0.719747 -0.07031,1.029297 0.29354,0.2934 0.29403,0.752594 0,1.902344 -0.24865,0.97223 -0.232069,1.176301 0.119141,1.494141 0.12493,0.11306 0.226563,0.291224 0.226563,0.396484 0,0.10526 0.0805,0.459669 0.177734,0.787109 0.07307,0.246039 0.21284,0.479319 0.333456,0.616399 0,0 -7.868149,-0.14742 -9.9986396,-0.02227 -2.1304909,0.125148 -2.7599597,0.02229 -2.7599597,0.02229 l -0.012357,-1.042201 c 0.35791,-0.28748 0.4365187,-0.388901 0.5429687,-0.550781 0.36338,-0.55253 0.6738282,-1.455378 0.6738282,-1.960938 0,-0.21241 0.082647,-0.512861 0.1855468,-0.669922 0.13622,-0.20789 0.1706969,-0.433758 0.1230469,-0.830078 -0.0591,-0.49159 0.010757,-0.718055 0.7167969,-2.328125 l 0.78125,-1.783203 0.8730468,0.03906 c 0.74791,0.0346 0.965071,-0.0012 1.525391,-0.257813 0.8234,-0.37697 1.089877,-0.375851 1.779297,0.01172 l 0.554687,0.3125 0.578125,-0.542969 c 0.31856,-0.29798 0.682684,-0.541015 0.808594,-0.541015 z m 6.107422,2.667968 c 0.15006,0.0302 0.253204,0.190792 0.214844,0.388672 -0.0619,0.31952 -0.274505,0.315918 -0.421875,-0.0078 -0.11118,-0.24403 -0.103898,-0.308125 0.04492,-0.365235 0.0573,-0.022 0.11208,-0.02562 0.16211,-0.01563 z m -0.646484,0.332032 c 0.0231,-0.0104 0.04511,-0.0094 0.06641,0 0.0639,0.0292 0.117854,0.146766 0.146484,0.341797 0.0283,0.1926 0.01606,0.371567 -0.02734,0.398437 -0.10913,0.0675 -0.360557,-0.511098 -0.279296,-0.642578 0.0318,-0.0514 0.06295,-0.08386 0.09375,-0.09766 z M 4.5507812,37.732422 c 0.0367,-4.5e-4 0.068403,0.0048 0.095703,0.01563 0.16375,0.0651 0.1519431,0.314268 -0.091797,0.517578 -0.32799,0.27361 -0.3953325,0.274019 -0.5390625,0.0059 -0.12924,-0.24151 -0.011151,-0.388098 0.4121094,-0.517578 0.0456,-0.014 0.086347,-0.02088 0.1230468,-0.02148 z m 15.6035158,0.136719 c 0.044,0.0272 0.0767,0.114467 0.125,0.279297 0.0804,0.274499 0.06561,0.386233 -0.05859,0.464843 -0.25663,0.16244 -0.326063,0.128092 -0.408203,-0.199219 -0.057,-0.22712 -0.0197,-0.345493 0.142578,-0.464843 0.0997,-0.0733 0.155199,-0.107338 0.199219,-0.08008 z m 1.417969,0.171875 1.02539,1.208984 c 1.23678,1.45918 1.515311,1.897461 1.613282,2.550781 0.10433,0.69569 -0.174442,1.250613 -1.082032,2.158203 l -0.742187,0.744141 -1.164063,-0.01367 c -1.25585,-0.0133 -2.059052,-0.143814 -2.232422,-0.365234 -0.0599,-0.0765 -0.192492,-0.391669 -0.294922,-0.699219 l -0.185546,-0.558594 0.255859,0.08398 c 0.14091,0.0463 0.483256,0.109705 0.759766,0.140625 0.75664,0.0846 0.557982,-0.184449 -0.335938,-0.455078 -1.09557,-0.33169 -1.092512,-0.3252 -0.857422,-1.63086 0.10936,-0.60738 0.175685,-1.228119 0.146485,-1.380859 -0.0484,-0.25303 -0.0068,-0.284949 0.474609,-0.355469 0.73367,-0.10745 1.432719,-0.435566 2.074219,-0.972656 z m -2.31836,0.248046 c 0.12643,-0.006 0.162445,0.06447 0.203125,0.277344 0.0341,0.17842 0.03781,0.36428 0.0078,0.41211 -0.12059,0.19512 -0.512579,0.07127 -0.636719,-0.201172 -0.15199,-0.33358 -0.137515,-0.357805 0.265625,-0.458985 0.0658,-0.0165 0.118016,-0.0273 0.160156,-0.0293 z m -14.2617185,0.04883 c 0.0237,-0.005 0.044653,-0.005 0.064453,0.002 0.0265,0.009 0.049919,0.02929 0.074219,0.05859 0.0909,0.109629 0.052772,0.230923 -0.1484375,0.464843 -0.31325,0.36404 -0.3257838,0.369273 -0.4960938,0.164063 -0.0971,-0.117 -0.051364,-0.226664 0.1972657,-0.464844 0.1447699,-0.13871 0.2376737,-0.209579 0.3085937,-0.224609 z m 13.2402345,0.28125 c 0.0139,-0.004 0.02857,-0.0031 0.04297,0.0039 0.0578,0.0256 0.120229,0.134375 0.193359,0.328125 0.10286,0.2725 0.09962,0.34375 -0.01758,0.34375 -0.22381,0 -0.421084,-0.290283 -0.339844,-0.501953 0.0397,-0.10348 0.0794,-0.161998 0.121094,-0.173828 z M 5.59375,38.796875 c 0.0902,-0.0139 0.141165,0.04975 0.140625,0.189453 -3.6e-4,0.0754 -0.1190819,0.284164 -0.2636719,0.464844 -0.23902,0.29869 -0.2774019,0.310392 -0.4199219,0.138672 -0.13589,-0.16374 -0.1137943,-0.233331 0.1660157,-0.525391 0.15681,-0.16367 0.2867531,-0.253728 0.3769531,-0.267578 z m 0.5136719,0.388672 c 0.0264,0.0117 0.060197,0.03491 0.091797,0.06641 0.0762,0.0761 0.071228,0.238862 -0.013672,0.482422 -0.12321,0.3534 -0.2322732,0.412886 -0.5332031,0.291016 -0.1,-0.0405 -0.068049,-0.162635 0.1132812,-0.421875 0.14054,-0.20091 0.2700294,-0.388596 0.2871094,-0.416016 0.009,-0.0137 0.028287,-0.01335 0.054687,-0.002 z m 0.6894531,0.453125 c 0.2172,-0.0284 0.4165806,0.139764 0.3066406,0.433594 -0.0629,0.16819 -0.1903575,0.257812 -0.3671875,0.257812 -0.37072,0 -0.4330362,-0.08945 -0.2851562,-0.414062 0.0789,-0.17321 0.2153831,-0.260324 0.3457031,-0.277344 z m -4.2675781,0.572266 c -0.0362,-0.0126 -0.1052819,0.04271 -0.2011719,0.173828 -0.40351,0.55183 -0.4945456,1.968171 -0.1660156,2.582031 0.17511,0.32719 0.4004118,0.312129 0.2949218,-0.01953 -0.1854199,-0.583 -0.1939981,-1.643514 -0.017578,-2.152344 0.12297,-0.35458 0.1502538,-0.562984 0.089844,-0.583984 z"
       transform="translate(98.240941,237.05657)"
       sodipodi:nodetypes="ccccccccccccccccccccccccccsccccccccscccssccccccsccsccsccssscccscssccccscccscccsscsccsscscccccssssssssccccccssssccscccccccsscssccccccsscsccsssscccccscscccsccsccccccccccscscccccccscsccccsccccccccccccsccscccccccsscccccscscccccccccsccccsccsccsssscccccscccccsssccsccccccccccccccscssssccssccsccccccccccccccccccccsscccccscscccssccssccsccscsccccsccccccccccccccccccsccccsccccccsccccsccccscscccccccccccccscccccsccccscscccccccccccscscccccccscsccsccscscsccccccccsscsscccsccccccsccccccccccsssscccccccccccsscccsssccccsccccccccccscccscsccccccccccccscccssccccsccccccccccccccccscscsccccccccscscccscccccscccccccccccsccccccccccsscccccccsccccsccssscccsccccsscccccccccccscccsscccscscccscscssccscccsccccsssccsssscccssscccsscccccssccccccccssscscsssscccssccsscccscccccccccssscccccsccccccccccccccccccccccczccccccsccccscccccccscsccccsscscscccssccccscccccsssccccsccccssscccsccccscccscsscssccsssccccsccccccsscscsccss" />
  </g>
</svg>
